<svg id="visual" viewBox="0 0 900 600" width="900" height="600" xmlns="http://www.w3.org/2000/svg" xmlns:xlink="http://www.w3.org/1999/xlink" version="1.1"><rect x="0" y="0" width="900" height="600" fill="#FFFFFF"></rect><defs><linearGradient id="grad1_0" x1="33.3%" y1="100%" x2="100%" y2="0%"><stop offset="20%" stop-color="#00e15d" stop-opacity="1"></stop><stop offset="80%" stop-color="#00e15d" stop-opacity="1"></stop></linearGradient></defs><defs><linearGradient id="grad1_1" x1="33.3%" y1="100%" x2="100%" y2="0%"><stop offset="20%" stop-color="#00e15d" stop-opacity="1"></stop><stop offset="80%" stop-color="#a7f2af" stop-opacity="1"></stop></linearGradient></defs><defs><linearGradient id="grad1_2" x1="33.3%" y1="100%" x2="100%" y2="0%"><stop offset="20%" stop-color="#ffffff" stop-opacity="1"></stop><stop offset="80%" stop-color="#a7f2af" stop-opacity="1"></stop></linearGradient></defs><defs><linearGradient id="grad2_0" x1="0%" y1="100%" x2="66.7%" y2="0%"><stop offset="20%" stop-color="#00e15d" stop-opacity="1"></stop><stop offset="80%" stop-color="#00e15d" stop-opacity="1"></stop></linearGradient></defs><defs><linearGradient id="grad2_1" x1="0%" y1="100%" x2="66.7%" y2="0%"><stop offset="20%" stop-color="#a7f2af" stop-opacity="1"></stop><stop offset="80%" stop-color="#00e15d" stop-opacity="1"></stop></linearGradient></defs><defs><linearGradient id="grad2_2" x1="0%" y1="100%" x2="66.7%" y2="0%"><stop offset="20%" stop-color="#a7f2af" stop-opacity="1"></stop><stop offset="80%" stop-color="#ffffff" stop-opacity="1"></stop></linearGradient></defs><g transform="translate(900, 600)"><path d="M-243.4 0C-242.7 -26.4 -242.1 -52.9 -231.5 -75.2C-220.9 -97.5 -200.3 -115.7 -180.4 -131.1C-160.5 -146.4 -141.4 -158.9 -122.3 -168.3C-103.1 -177.7 -84 -183.9 -63.7 -195.9C-43.3 -207.9 -21.6 -225.6 0 -243.4L0 0Z" fill="#d5f9d7"></path><path d="M-162.2 0C-161.8 -17.6 -161.4 -35.3 -154.3 -50.1C-147.2 -65 -133.5 -77.2 -120.3 -87.4C-107 -97.6 -94.3 -105.9 -81.5 -112.2C-68.8 -118.4 -56 -122.6 -42.4 -130.6C-28.9 -138.6 -14.4 -150.4 0 -162.2L0 0Z" fill="#72ea87"></path><path d="M-81.1 0C-80.9 -8.8 -80.7 -17.6 -77.2 -25.1C-73.6 -32.5 -66.8 -38.6 -60.1 -43.7C-53.5 -48.8 -47.1 -53 -40.8 -56.1C-34.4 -59.2 -28 -61.3 -21.2 -65.3C-14.4 -69.3 -7.2 -75.2 0 -81.1L0 0Z" fill="#00e15d"></path></g><g transform="translate(0, 0)"><path d="M243.4 0C238.1 25.4 232.8 50.8 222.5 72.3C212.2 93.8 196.9 111.4 184.5 134C172 156.6 162.5 184.3 143.1 196.9C123.6 209.4 94.4 206.9 68.9 212.1C43.4 217.3 21.7 230.3 0 243.4L0 0Z" fill="#d5f9d7"></path><path d="M162.2 0C158.7 16.9 155.2 33.9 148.4 48.2C141.5 62.5 131.3 74.3 123 89.3C114.7 104.4 108.3 122.9 95.4 131.3C82.4 139.6 62.9 137.9 45.9 141.4C29 144.9 14.5 153.6 0 162.2L0 0Z" fill="#72ea87"></path><path d="M81.1 0C79.4 8.5 77.6 16.9 74.2 24.1C70.7 31.3 65.6 37.1 61.5 44.7C57.3 52.2 54.2 61.4 47.7 65.6C41.2 69.8 31.5 69 23 70.7C14.5 72.4 7.2 76.8 0 81.1L0 0Z" fill="#00e15d"></path></g></svg>